<svg data-v-423bf9ae="" xmlns="http://www.w3.org/2000/svg" viewBox="0 0 1212.1422984545122 193" class="fontAboveSlogan"><!----><!----><!----><g data-v-423bf9ae="" id="0bea7721-7939-4a5c-b33f-3e63ca49d212" fill="#1B3547" transform="matrix(9.360374637797165,0,0,9.360374637797165,299.23445517169387,-4.681809817099108)"><path d="M9.45 10.50L10.19 10.50L10.19 0.70L9.27 0.70L5.56 6.41L1.81 0.70C1.44 0.70 1.27 0.70 0.91 0.70L0.91 10.50L1.67 10.50L1.67 1.79L5.45 7.53L5.70 7.53L9.45 1.79ZM11.96 10.08C11.96 10.81 13.06 10.81 13.06 10.08C13.06 9.35 11.96 9.35 11.96 10.08ZM25.84 2.23C24.88 0.78 23.66 0.56 22.26 0.56C20.65 0.56 18.49 1.20 18.54 3.28C18.54 5.08 20.37 5.45 22.16 5.80C23.77 6.10 25.40 6.43 25.38 7.90C25.38 9.63 23.46 9.97 22.26 9.97C21.06 9.97 19.52 9.38 18.91 8.19L18.24 8.53C19.00 10.02 20.73 10.65 22.26 10.65C23.90 10.65 26.12 10.12 26.14 7.91C26.14 5.80 24.18 5.46 22.29 5.10C20.64 4.79 19.29 4.49 19.29 3.25C19.29 1.68 21.11 1.26 22.26 1.26C23.37 1.27 24.51 1.44 25.23 2.59ZM28.29 3.56L28.29 10.50L27.61 10.50L27.61 3.56ZM27.41 1.33C27.41 2.06 28.52 2.06 28.52 1.33C28.52 0.60 27.41 0.60 27.41 1.33ZM41.19 10.50L41.19 6.36C41.19 4.63 39.98 3.44 38.29 3.44C37.23 3.44 36.15 4.02 35.73 5.15C35.32 3.92 34.22 3.44 33.17 3.44C32.27 3.44 31.39 3.82 30.91 4.73L30.90 3.58L30.25 3.58L30.25 10.50L30.94 10.50L30.94 6.40C30.94 5.07 31.84 4.10 33.15 4.10C34.47 4.10 35.38 5.07 35.38 6.40L35.38 10.50L36.06 10.50L36.06 6.40C36.06 5.07 36.97 4.09 38.29 4.09C39.61 4.09 40.50 5.03 40.50 6.36L40.50 10.50ZM47.99 3.58L46.26 7.66L45.46 9.67L44.65 7.67L43.04 3.58L42.29 3.58L45.07 10.42L43.79 13.38L44.52 13.38L48.73 3.58ZM56.03 3.58L56.03 5.10C55.45 4.02 54.32 3.50 53.20 3.50C51.27 3.50 49.69 4.93 49.69 7.04C49.69 9.16 51.27 10.61 53.20 10.61C54.32 10.61 55.36 10.11 56.03 9.03L56.03 10.50L56.71 10.50C56.71 8.19 56.71 5.89 56.71 3.58ZM53.20 4.16C57.05 4.16 57.05 9.94 53.20 9.94C51.63 9.94 50.37 8.78 50.37 7.04C50.37 5.31 51.63 4.16 53.20 4.16ZM58.58 3.58L58.58 10.50L59.26 10.50L59.26 6.65C59.26 5.22 60.26 4.14 61.68 4.13C63.18 4.12 64.15 4.96 64.15 6.52L64.15 10.50L64.83 10.50L64.83 6.51C64.83 4.59 63.56 3.46 61.71 3.46C60.75 3.47 59.78 3.86 59.25 4.82L59.25 3.58Z"></path></g><!----><!----><g data-v-423bf9ae="" id="e0b222c8-fb87-4146-add1-070bd02572d6" fill="#6D7A78" transform="matrix(4.743082789406028,0,0,4.743082789406028,-3.3201447206686225,115.7826075011419)"><path d="M1.89 3.92L0.70 3.92L0.70 4.19C0.70 4.34 0.80 4.42 0.98 4.44L1.12 4.44C1.19 4.44 1.29 4.45 1.43 4.45C1.57 4.45 1.72 4.47 1.89 4.47L1.89 13.26C1.72 13.26 1.57 13.27 1.43 13.27C1.29 13.27 1.19 13.29 1.12 13.29L0.98 13.29C0.80 13.30 0.71 13.38 0.71 13.54L0.71 13.82L1.89 13.82L7.83 13.82L7.83 13.22L7.83 11.76L7.48 11.76C7.28 11.76 7.20 11.89 7.18 12.11C7.18 12.14 7.17 12.19 7.17 12.29C7.17 12.39 7.17 12.53 7.15 12.74C7.14 12.95 7.13 13.09 7.13 13.22L2.60 13.22L2.60 9.09L6.55 9.09L6.55 8.51L2.60 8.51L2.60 4.51L7.13 4.51C7.15 5.12 7.18 5.50 7.18 5.63C7.20 5.85 7.28 5.96 7.48 5.96L7.83 5.96L7.83 4.51L7.83 3.92ZM22.62 13.29C22.61 13.29 22.48 13.29 22.23 13.27L20.08 10.22L22.12 7.39C22.40 7.38 22.55 7.38 22.55 7.38C22.74 7.36 22.83 7.28 22.83 7.13L22.83 6.86L22.51 6.86L21.90 6.86L21.83 6.86L20.76 6.86L20.76 7.13C20.76 7.28 20.86 7.36 21.04 7.38C21.06 7.38 21.18 7.38 21.41 7.39L19.78 9.70C19.73 9.79 19.67 9.87 19.66 9.95L17.89 7.39C18.09 7.38 18.20 7.38 18.23 7.38C18.41 7.36 18.51 7.28 18.51 7.13L18.51 6.86L17.44 6.86L17.40 6.86L17.39 6.86L16.76 6.86L16.44 6.86L16.44 7.13C16.44 7.28 16.53 7.36 16.72 7.38C16.72 7.38 16.87 7.38 17.15 7.39L19.18 10.25L17.04 13.27C16.79 13.29 16.67 13.29 16.66 13.29C16.48 13.30 16.38 13.38 16.38 13.54L16.38 13.82L17.02 13.82L17.39 13.82L18.45 13.82L18.45 13.54C18.45 13.38 18.35 13.30 18.17 13.29C18.16 13.29 18.02 13.29 17.75 13.27L19.52 10.79C19.56 10.72 19.59 10.67 19.61 10.57L21.49 13.27C21.25 13.29 21.11 13.29 21.10 13.29C20.92 13.30 20.83 13.38 20.83 13.54L20.83 13.82L21.88 13.82L22.26 13.82L22.89 13.82L22.89 13.54C22.89 13.38 22.81 13.30 22.62 13.29ZM33.87 6.73C33.38 6.73 32.93 6.83 32.54 7.00C32.14 7.17 31.82 7.41 31.56 7.71C31.29 8.02 31.08 8.39 30.94 8.81C30.80 9.23 30.72 9.69 30.72 10.19C30.72 10.78 30.80 11.31 30.95 11.77C31.11 12.24 31.32 12.61 31.60 12.94C31.88 13.26 32.21 13.50 32.61 13.66C33.00 13.83 33.43 13.90 33.91 13.90C34.17 13.90 34.44 13.89 34.69 13.83C34.94 13.78 35.20 13.71 35.42 13.62C35.64 13.54 35.85 13.44 36.04 13.31C36.22 13.19 36.37 13.06 36.48 12.92L36.30 12.70C36.27 12.66 36.22 12.63 36.16 12.63C36.12 12.63 36.04 12.66 35.94 12.74C35.84 12.82 35.70 12.91 35.52 13.01C35.35 13.10 35.13 13.17 34.87 13.26C34.62 13.34 34.31 13.38 33.96 13.38C33.57 13.38 33.22 13.31 32.90 13.17C32.58 13.03 32.31 12.84 32.09 12.57C31.86 12.31 31.70 11.97 31.57 11.58C31.44 11.19 31.39 10.71 31.39 10.19L31.39 10.07L36.41 10.07C36.48 10.07 36.53 10.05 36.55 10.01C36.58 9.97 36.61 9.90 36.61 9.80C36.61 9.31 36.54 8.88 36.40 8.50C36.26 8.12 36.08 7.78 35.83 7.53C35.59 7.28 35.29 7.08 34.96 6.94C34.62 6.80 34.26 6.73 33.87 6.73ZM33.88 7.24C34.20 7.24 34.48 7.29 34.75 7.41C35.01 7.52 35.24 7.67 35.42 7.88C35.60 8.09 35.76 8.33 35.85 8.62C35.95 8.92 36.01 9.25 36.01 9.63L31.42 9.63C31.46 9.27 31.54 8.93 31.67 8.64C31.79 8.34 31.96 8.09 32.17 7.88C32.38 7.67 32.63 7.52 32.91 7.41C33.19 7.29 33.52 7.24 33.88 7.24ZM49.36 6.80C49.18 6.76 49 6.73 48.79 6.73C48.24 6.73 47.78 6.89 47.40 7.21C47.03 7.53 46.73 7.98 46.51 8.54L46.45 7.07C46.45 6.99 46.42 6.93 46.40 6.90C46.37 6.87 46.31 6.86 46.23 6.86L45.88 6.86L45.88 6.86L44.87 6.86L44.87 7.13C44.87 7.31 44.97 7.36 45.14 7.38C45.22 7.38 45.30 7.38 45.88 7.41L45.88 13.26C45.30 13.29 45.22 13.29 45.14 13.29C44.97 13.30 44.87 13.36 44.87 13.54L44.87 13.82L45.88 13.82L46.54 13.82L46.54 13.82L47.54 13.82L47.54 13.54C47.54 13.36 47.45 13.30 47.28 13.29C47.19 13.29 47.11 13.29 46.54 13.26L46.54 9.30C46.75 8.68 47.03 8.20 47.36 7.88C47.70 7.56 48.13 7.39 48.66 7.39C48.80 7.39 48.93 7.41 49.04 7.42C49.15 7.43 49.27 7.45 49.34 7.48C49.42 7.50 49.46 7.53 49.52 7.55C49.57 7.56 49.62 7.57 49.64 7.57C49.73 7.57 49.77 7.53 49.78 7.46L49.87 7.00C49.71 6.92 49.55 6.85 49.36 6.80ZM63.08 12.70C63.06 12.66 63 12.63 62.94 12.63C62.89 12.63 62.83 12.66 62.75 12.74C62.66 12.82 62.54 12.91 62.40 13.01C62.26 13.10 62.06 13.17 61.84 13.26C61.61 13.34 61.32 13.38 60.98 13.38C60.62 13.38 60.28 13.31 59.99 13.17C59.70 13.03 59.44 12.85 59.23 12.59C59.02 12.33 58.86 12.01 58.74 11.63C58.63 11.26 58.58 10.82 58.58 10.33C58.58 9.86 58.63 9.44 58.74 9.06C58.86 8.68 59.02 8.36 59.23 8.09C59.44 7.83 59.71 7.62 60.02 7.48C60.33 7.34 60.68 7.27 61.08 7.27C61.43 7.27 61.82 7.35 62.27 7.50C62.29 7.69 62.29 7.87 62.30 8.04C62.31 8.20 62.33 8.33 62.34 8.43C62.36 8.53 62.36 8.58 62.36 8.60C62.37 8.82 62.47 8.93 62.66 8.93L63 8.93L63 7.18L62.64 7.07C62.40 7.00 62.10 6.92 61.78 6.85C61.46 6.78 61.21 6.75 61.04 6.75C60.54 6.75 60.10 6.82 59.71 7.00C59.32 7.18 58.98 7.42 58.72 7.74C58.45 8.06 58.25 8.44 58.11 8.88C57.97 9.31 57.89 9.80 57.89 10.33C57.89 10.89 57.96 11.40 58.11 11.84C58.25 12.29 58.46 12.66 58.73 12.96C59.00 13.27 59.32 13.51 59.68 13.66C60.05 13.83 60.44 13.92 60.89 13.92C61.15 13.92 61.40 13.89 61.64 13.83C61.88 13.78 62.10 13.72 62.31 13.64C62.52 13.55 62.69 13.44 62.86 13.31C63.03 13.19 63.15 13.06 63.27 12.92ZM72.39 4.89C72.45 4.94 72.52 4.98 72.59 5.01C72.66 5.04 72.74 5.07 72.83 5.07C72.91 5.07 73.00 5.04 73.07 5.01C73.14 4.98 73.21 4.94 73.26 4.89C73.32 4.83 73.37 4.76 73.40 4.69C73.43 4.62 73.46 4.54 73.46 4.45C73.46 4.37 73.43 4.30 73.40 4.21C73.37 4.14 73.32 4.07 73.26 4.02C73.21 3.96 73.14 3.91 73.07 3.88C73.00 3.85 72.91 3.84 72.83 3.84C72.74 3.84 72.66 3.85 72.59 3.88C72.52 3.91 72.45 3.96 72.39 4.02C72.34 4.07 72.30 4.14 72.27 4.21C72.24 4.28 72.21 4.37 72.21 4.45C72.21 4.54 72.24 4.62 72.27 4.69C72.30 4.76 72.34 4.83 72.39 4.89ZM73.89 13.29L73.82 13.29L73.71 13.29C73.67 13.29 73.60 13.27 73.50 13.27C73.40 13.27 73.29 13.26 73.16 13.26L73.16 6.85L72.49 6.85L71.48 6.85L71.48 7.13C71.48 7.28 71.58 7.36 71.76 7.38L71.83 7.38C71.86 7.38 71.90 7.39 71.95 7.39L72.16 7.39C72.25 7.39 72.37 7.41 72.49 7.41L72.49 13.26C72.34 13.26 72.20 13.29 72.09 13.29L71.85 13.29L71.76 13.29C71.58 13.30 71.48 13.38 71.48 13.54L71.48 13.82L72.49 13.82L73.16 13.82L74.17 13.82L74.17 13.54C74.17 13.38 74.07 13.30 73.89 13.29ZM86.98 11.06C86.87 10.86 86.73 10.71 86.55 10.57C86.37 10.43 86.16 10.32 85.93 10.23C85.71 10.15 85.46 10.05 85.22 9.98C84.98 9.91 84.74 9.83 84.50 9.76C84.28 9.69 84.07 9.59 83.89 9.49C83.71 9.39 83.57 9.27 83.45 9.13C83.34 8.99 83.29 8.81 83.29 8.58C83.29 8.40 83.31 8.23 83.40 8.08C83.48 7.92 83.59 7.77 83.75 7.64C83.89 7.52 84.07 7.43 84.28 7.36C84.49 7.29 84.71 7.25 84.97 7.25C85.33 7.25 85.69 7.31 86.07 7.43C86.09 7.60 86.10 7.77 86.11 7.92C86.13 8.08 86.13 8.19 86.14 8.27C86.16 8.36 86.16 8.43 86.16 8.44C86.17 8.67 86.27 8.78 86.46 8.78L86.80 8.78L86.80 7.11C86.07 6.86 85.46 6.75 84.95 6.75C84.60 6.75 84.28 6.80 84.00 6.90C83.72 7.00 83.47 7.14 83.27 7.31C83.08 7.48 82.92 7.69 82.81 7.91C82.70 8.13 82.66 8.37 82.66 8.62C82.66 8.92 82.71 9.16 82.82 9.35C82.94 9.55 83.08 9.70 83.26 9.84C83.44 9.98 83.64 10.09 83.87 10.18C84.10 10.26 84.34 10.35 84.59 10.42C84.83 10.49 85.06 10.57 85.30 10.64C85.53 10.71 85.74 10.81 85.92 10.92C86.10 11.03 86.25 11.16 86.37 11.31C86.48 11.47 86.53 11.65 86.53 11.89C86.53 12.10 86.49 12.29 86.42 12.49C86.34 12.68 86.23 12.84 86.07 12.98C85.92 13.12 85.74 13.23 85.51 13.31C85.29 13.40 85.04 13.44 84.74 13.44C84.21 13.44 83.76 13.37 83.38 13.22C83.37 13.03 83.36 12.87 83.34 12.71C83.33 12.56 83.33 12.43 83.31 12.35C83.30 12.26 83.30 12.19 83.30 12.18C83.29 11.96 83.19 11.84 82.99 11.84L82.66 11.84L82.66 13.54C83.33 13.79 84.01 13.93 84.71 13.93C85.11 13.93 85.44 13.87 85.75 13.76C86.06 13.65 86.31 13.50 86.52 13.30C86.73 13.10 86.88 12.89 87.00 12.63C87.11 12.36 87.16 12.08 87.16 11.77C87.16 11.49 87.09 11.26 86.98 11.06ZM98.39 6.73C97.90 6.73 97.45 6.83 97.06 7.00C96.67 7.17 96.35 7.41 96.08 7.71C95.82 8.02 95.61 8.39 95.47 8.81C95.33 9.23 95.24 9.69 95.24 10.19C95.24 10.78 95.33 11.31 95.48 11.77C95.63 12.24 95.84 12.61 96.12 12.94C96.40 13.26 96.74 13.50 97.13 13.66C97.52 13.83 97.96 13.90 98.43 13.90C98.70 13.90 98.97 13.89 99.22 13.83C99.47 13.78 99.72 13.71 99.95 13.62C100.17 13.54 100.38 13.44 100.56 13.31C100.74 13.19 100.90 13.06 101.01 12.92L100.83 12.70C100.80 12.66 100.74 12.63 100.69 12.63C100.65 12.63 100.56 12.66 100.46 12.74C100.37 12.82 100.23 12.91 100.04 13.01C99.88 13.10 99.65 13.17 99.40 13.26C99.15 13.34 98.84 13.38 98.49 13.38C98.10 13.38 97.75 13.31 97.43 13.17C97.10 13.03 96.84 12.84 96.61 12.57C96.39 12.31 96.22 11.97 96.10 11.58C95.97 11.19 95.91 10.71 95.91 10.19L95.91 10.07L100.94 10.07C101.01 10.07 101.05 10.05 101.08 10.01C101.11 9.97 101.14 9.90 101.14 9.80C101.14 9.31 101.07 8.88 100.93 8.50C100.79 8.12 100.60 7.78 100.35 7.53C100.11 7.28 99.82 7.08 99.48 6.94C99.15 6.80 98.78 6.73 98.39 6.73ZM98.41 7.24C98.73 7.24 99.01 7.29 99.27 7.41C99.54 7.52 99.76 7.67 99.95 7.88C100.13 8.09 100.28 8.33 100.38 8.62C100.48 8.92 100.53 9.25 100.53 9.63L95.94 9.63C95.98 9.27 96.07 8.93 96.19 8.64C96.32 8.34 96.49 8.09 96.70 7.88C96.91 7.67 97.16 7.52 97.44 7.41C97.72 7.29 98.04 7.24 98.41 7.24ZM125.34 13.29L125.24 13.29L125.02 13.29C124.92 13.29 124.81 13.27 124.70 13.27L124.70 9.28C124.70 8.89 124.66 8.55 124.56 8.23C124.46 7.91 124.32 7.64 124.14 7.42C123.96 7.20 123.72 7.03 123.44 6.92C123.16 6.79 122.84 6.73 122.46 6.73C121.95 6.73 121.51 6.83 121.10 7.01C120.69 7.20 120.32 7.48 119.95 7.84L120.06 8.05C120.11 8.13 120.18 8.18 120.27 8.18C120.34 8.18 120.44 8.12 120.54 8.02C120.64 7.92 120.78 7.84 120.95 7.73C121.11 7.62 121.30 7.52 121.53 7.42C121.77 7.32 122.05 7.28 122.39 7.28C122.93 7.28 123.35 7.45 123.63 7.80C123.91 8.15 124.04 8.64 124.04 9.28L124.04 10.01C123.26 10.02 122.58 10.09 122.02 10.21C121.46 10.32 121.00 10.47 120.64 10.65C120.27 10.84 120.02 11.06 119.85 11.31C119.69 11.56 119.60 11.83 119.60 12.12C119.60 12.45 119.66 12.73 119.76 12.95C119.87 13.17 120.01 13.36 120.18 13.50C120.34 13.64 120.55 13.75 120.78 13.82C121.00 13.89 121.23 13.93 121.46 13.93C121.74 13.93 122.01 13.90 122.25 13.85C122.49 13.79 122.70 13.71 122.91 13.61C123.12 13.51 123.31 13.38 123.51 13.23C123.69 13.08 123.87 12.91 124.07 12.73L124.17 13.62C124.19 13.75 124.29 13.82 124.43 13.82L124.45 13.82L124.70 13.82L125.62 13.82L125.62 13.54C125.62 13.38 125.52 13.30 125.34 13.29ZM124.04 12.26C123.87 12.43 123.72 12.60 123.55 12.74C123.38 12.88 123.20 13.01 123.00 13.12C122.81 13.23 122.60 13.30 122.37 13.36C122.15 13.41 121.90 13.44 121.63 13.44C121.45 13.44 121.27 13.43 121.10 13.37C120.93 13.31 120.79 13.24 120.67 13.13C120.54 13.02 120.43 12.88 120.36 12.71C120.27 12.54 120.25 12.35 120.25 12.11C120.25 11.86 120.32 11.63 120.47 11.44C120.62 11.24 120.85 11.09 121.16 10.95C121.46 10.81 121.86 10.70 122.33 10.61C122.81 10.53 123.38 10.47 124.04 10.46ZM141.16 13.29L141.09 13.29L140.98 13.29C140.94 13.29 140.87 13.27 140.77 13.27C140.67 13.27 140.56 13.26 140.43 13.26L140.43 9.37C140.43 8.96 140.38 8.60 140.28 8.27C140.18 7.95 140.04 7.67 139.85 7.45C139.65 7.22 139.41 7.06 139.12 6.93C138.82 6.80 138.49 6.75 138.11 6.75C137.59 6.75 137.12 6.87 136.70 7.11C136.28 7.36 135.91 7.67 135.59 8.08L135.53 7.03C135.52 6.92 135.45 6.86 135.32 6.86L134.96 6.86L133.95 6.86L133.95 7.13C133.95 7.28 134.04 7.36 134.22 7.38L134.30 7.38C134.33 7.38 134.36 7.39 134.40 7.39L134.61 7.39C134.71 7.39 134.83 7.41 134.96 7.41L134.96 13.26C134.79 13.26 134.65 13.29 134.54 13.29L134.32 13.29L134.22 13.29C134.04 13.30 133.95 13.38 133.95 13.54L133.95 13.82L134.96 13.82L135.62 13.82L136.63 13.82L136.63 13.54C136.63 13.38 136.54 13.30 136.36 13.29L136.28 13.29L136.18 13.29C136.14 13.29 136.07 13.27 135.97 13.27C135.87 13.27 135.74 13.26 135.62 13.26L135.62 8.60C135.93 8.19 136.28 7.87 136.67 7.63C137.06 7.39 137.48 7.28 137.94 7.28C138.56 7.28 139.02 7.46 139.31 7.83C139.61 8.20 139.76 8.71 139.76 9.37L139.76 13.82L140.43 13.82L141.44 13.82L141.44 13.54C141.44 13.38 141.34 13.30 141.16 13.29ZM156.32 13.54C156.32 13.38 156.24 13.30 156.06 13.29L155.99 13.29L155.89 13.29C155.85 13.29 155.78 13.27 155.69 13.27L155.39 13.27L155.39 3.63L154.73 3.63L153.72 3.63L153.72 3.91C153.72 4.06 153.82 4.14 154 4.16L154.07 4.16C154.10 4.16 154.13 4.17 154.17 4.17L154.39 4.17C154.49 4.17 154.60 4.19 154.73 4.19L154.73 7.76C154.48 7.42 154.18 7.17 153.83 7.00C153.48 6.82 153.08 6.73 152.60 6.73C152.11 6.73 151.68 6.83 151.30 7.01C150.92 7.20 150.61 7.46 150.35 7.78C150.08 8.11 149.90 8.50 149.76 8.93C149.62 9.37 149.56 9.84 149.56 10.35C149.56 11.54 149.80 12.43 150.28 13.02C150.75 13.61 151.42 13.90 152.28 13.90C152.80 13.90 153.26 13.79 153.68 13.54C154.10 13.29 154.45 12.95 154.76 12.53L154.83 13.64C154.84 13.76 154.91 13.82 155.02 13.82L155.39 13.82L156.32 13.82L156.32 13.61ZM154.73 12.01C154.43 12.43 154.10 12.77 153.72 13.01C153.34 13.24 152.94 13.37 152.47 13.37C151.76 13.37 151.20 13.13 150.82 12.64C150.44 12.15 150.25 11.38 150.25 10.35C150.25 9.88 150.29 9.48 150.40 9.10C150.51 8.72 150.67 8.39 150.88 8.12C151.09 7.85 151.34 7.63 151.65 7.48C151.96 7.32 152.32 7.25 152.73 7.25C153.13 7.25 153.51 7.34 153.83 7.50C154.15 7.67 154.46 7.95 154.73 8.34ZM182.06 9.52C181.64 9.11 181.03 8.86 180.25 8.75C180.57 8.67 180.85 8.55 181.10 8.40C181.36 8.25 181.58 8.08 181.75 7.87C181.92 7.66 182.06 7.43 182.14 7.20C182.22 6.96 182.28 6.71 182.28 6.44C182.28 6.05 182.20 5.68 182.07 5.38C181.94 5.07 181.73 4.80 181.47 4.58C181.20 4.37 180.87 4.20 180.45 4.09C180.03 3.98 179.54 3.92 178.98 3.92L176.13 3.92L174.94 3.92L174.94 4.19C174.94 4.34 175.04 4.42 175.22 4.44L175.36 4.44C175.43 4.44 175.53 4.45 175.67 4.45C175.81 4.45 175.97 4.47 176.13 4.47L176.13 13.26C175.97 13.26 175.81 13.27 175.67 13.27C175.53 13.27 175.43 13.29 175.36 13.29L175.22 13.29C175.04 13.30 174.96 13.38 174.96 13.54L174.96 13.82L176.13 13.82L179.34 13.82C179.87 13.82 180.33 13.76 180.75 13.64C181.17 13.51 181.52 13.34 181.80 13.10C182.08 12.87 182.31 12.59 182.46 12.25C182.62 11.91 182.69 11.54 182.69 11.12C182.69 10.46 182.48 9.93 182.06 9.52ZM176.85 4.48L178.98 4.48C179.86 4.48 180.52 4.66 180.94 5.00C181.36 5.35 181.57 5.84 181.57 6.51C181.57 6.76 181.52 7.03 181.43 7.27C181.33 7.50 181.17 7.71 180.96 7.91C180.75 8.11 180.49 8.26 180.17 8.37C179.84 8.48 179.45 8.55 178.99 8.55L176.85 8.55ZM181.30 12.68C180.85 13.06 180.19 13.24 179.33 13.24L176.85 13.24L176.85 9.07L179.34 9.07C179.76 9.07 180.12 9.11 180.45 9.21C180.77 9.31 181.05 9.45 181.27 9.62C181.50 9.80 181.66 10.00 181.79 10.25C181.90 10.50 181.97 10.79 181.97 11.10C181.97 11.79 181.75 12.31 181.30 12.68ZM193.86 6.73C193.37 6.73 192.92 6.83 192.53 7.00C192.14 7.17 191.81 7.41 191.55 7.71C191.28 8.02 191.07 8.39 190.93 8.81C190.79 9.23 190.71 9.69 190.71 10.19C190.71 10.78 190.79 11.31 190.95 11.77C191.10 12.24 191.31 12.61 191.59 12.94C191.87 13.26 192.21 13.50 192.60 13.66C192.99 13.83 193.42 13.90 193.90 13.90C194.17 13.90 194.43 13.89 194.68 13.83C194.94 13.78 195.19 13.71 195.41 13.62C195.64 13.54 195.85 13.44 196.03 13.31C196.21 13.19 196.36 13.06 196.48 12.92L196.29 12.70C196.27 12.66 196.21 12.63 196.15 12.63C196.11 12.63 196.03 12.66 195.93 12.74C195.83 12.82 195.69 12.91 195.51 13.01C195.34 13.10 195.12 13.17 194.87 13.26C194.61 13.34 194.31 13.38 193.96 13.38C193.56 13.38 193.21 13.31 192.89 13.17C192.57 13.03 192.30 12.84 192.08 12.57C191.86 12.31 191.69 11.97 191.56 11.58C191.44 11.19 191.38 10.71 191.38 10.19L191.38 10.07L196.41 10.07C196.48 10.07 196.52 10.05 196.55 10.01C196.57 9.97 196.60 9.90 196.60 9.80C196.60 9.31 196.53 8.88 196.39 8.50C196.25 8.12 196.07 7.78 195.82 7.53C195.58 7.28 195.29 7.08 194.95 6.94C194.61 6.80 194.25 6.73 193.86 6.73ZM193.87 7.24C194.19 7.24 194.47 7.29 194.74 7.41C195.01 7.52 195.23 7.67 195.41 7.88C195.59 8.09 195.75 8.33 195.85 8.62C195.94 8.92 196 9.25 196 9.63L191.41 9.63C191.45 9.27 191.53 8.93 191.66 8.64C191.79 8.34 191.95 8.09 192.16 7.88C192.37 7.67 192.63 7.52 192.91 7.41C193.19 7.29 193.51 7.24 193.87 7.24ZM211.06 6.86L210.55 6.86L209.15 6.86L209.15 7.13C209.15 7.28 209.24 7.36 209.43 7.38L209.50 7.38C209.52 7.38 209.55 7.39 209.59 7.39L209.80 7.39C209.90 7.39 210.01 7.41 210.14 7.41L208.00 12.45L207.91 12.66C207.89 12.73 207.87 12.80 207.84 12.87C207.83 12.80 207.79 12.73 207.77 12.66C207.75 12.59 207.73 12.52 207.70 12.45L205.53 7.41C205.69 7.41 205.83 7.39 205.94 7.39C206.05 7.39 206.14 7.38 206.16 7.38L206.25 7.38C206.43 7.36 206.53 7.28 206.53 7.13L206.53 6.86L205.11 6.86L205.11 6.86L204.55 6.86L204.09 6.86L204.09 7.13C204.09 7.28 204.19 7.36 204.37 7.38C204.37 7.38 204.51 7.38 204.79 7.39L207.51 13.57L206.28 16.28L206.75 16.28C206.84 16.28 206.91 16.25 206.95 16.21C206.99 16.17 207.03 16.13 207.06 16.06L210.83 7.39L211.08 7.39C211.16 7.39 211.20 7.38 211.23 7.38L211.30 7.38C211.48 7.36 211.58 7.28 211.58 7.13L211.58 6.86ZM222.46 6.73C221.96 6.73 221.51 6.83 221.12 7.00C220.72 7.17 220.39 7.41 220.11 7.71C219.83 8.02 219.63 8.40 219.49 8.85C219.35 9.30 219.27 9.79 219.27 10.33C219.27 10.88 219.35 11.37 219.49 11.80C219.63 12.24 219.83 12.63 220.11 12.94C220.39 13.24 220.72 13.48 221.12 13.65C221.51 13.82 221.96 13.90 222.46 13.90C222.96 13.90 223.40 13.82 223.79 13.65C224.18 13.48 224.52 13.24 224.78 12.94C225.05 12.63 225.27 12.24 225.41 11.80C225.55 11.37 225.62 10.88 225.62 10.33C225.62 9.79 225.55 9.30 225.41 8.85C225.27 8.40 225.05 8.02 224.78 7.71C224.52 7.41 224.18 7.17 223.79 7.00C223.40 6.83 222.96 6.73 222.46 6.73ZM222.46 13.38C222.04 13.38 221.68 13.31 221.37 13.17C221.06 13.03 220.79 12.82 220.58 12.56C220.37 12.29 220.23 11.97 220.12 11.59C220.01 11.21 219.97 10.79 219.97 10.33C219.97 9.87 220.01 9.45 220.12 9.07C220.23 8.69 220.37 8.37 220.58 8.11C220.79 7.84 221.06 7.62 221.37 7.48C221.68 7.34 222.04 7.27 222.46 7.27C222.88 7.27 223.23 7.34 223.54 7.48C223.85 7.62 224.11 7.84 224.32 8.11C224.53 8.37 224.69 8.69 224.78 9.07C224.88 9.45 224.94 9.87 224.94 10.33C224.94 10.79 224.88 11.21 224.78 11.59C224.69 11.97 224.53 12.29 224.32 12.56C224.11 12.82 223.85 13.03 223.54 13.17C223.23 13.31 222.88 13.38 222.46 13.38ZM241.09 13.29L241.02 13.29L240.91 13.29C240.87 13.29 240.80 13.27 240.70 13.27C240.60 13.27 240.49 13.26 240.37 13.26L240.37 9.37C240.37 8.96 240.31 8.60 240.21 8.27C240.11 7.95 239.97 7.67 239.78 7.45C239.58 7.22 239.34 7.06 239.05 6.93C238.76 6.80 238.42 6.75 238.04 6.75C237.52 6.75 237.05 6.87 236.63 7.11C236.21 7.36 235.84 7.67 235.52 8.08L235.47 7.03C235.45 6.92 235.38 6.86 235.26 6.86L234.89 6.86L233.88 6.86L233.88 7.13C233.88 7.28 233.97 7.36 234.15 7.38L234.23 7.38C234.26 7.38 234.29 7.39 234.33 7.39L234.54 7.39C234.64 7.39 234.77 7.41 234.89 7.41L234.89 13.26C234.72 13.26 234.58 13.29 234.47 13.29L234.25 13.29L234.15 13.29C233.97 13.30 233.88 13.38 233.88 13.54L233.88 13.82L234.89 13.82L235.55 13.82L236.56 13.82L236.56 13.54C236.56 13.38 236.47 13.30 236.29 13.29L236.21 13.29L236.11 13.29C236.07 13.29 236.00 13.27 235.90 13.27C235.80 13.27 235.68 13.26 235.55 13.26L235.55 8.60C235.86 8.19 236.21 7.87 236.60 7.63C236.99 7.39 237.41 7.28 237.87 7.28C238.49 7.28 238.95 7.46 239.25 7.83C239.54 8.20 239.69 8.71 239.69 9.37L239.69 13.82L240.37 13.82L241.37 13.82L241.37 13.54C241.37 13.38 241.28 13.30 241.09 13.29ZM256.26 13.54C256.26 13.38 256.17 13.30 255.99 13.29L255.92 13.29L255.82 13.29C255.78 13.29 255.71 13.27 255.63 13.27L255.32 13.27L255.32 3.63L254.66 3.63L253.65 3.63L253.65 3.91C253.65 4.06 253.75 4.14 253.93 4.16L254.00 4.16C254.03 4.16 254.06 4.17 254.10 4.17L254.32 4.17C254.42 4.17 254.53 4.19 254.66 4.19L254.66 7.76C254.41 7.42 254.11 7.17 253.76 7.00C253.41 6.82 253.01 6.73 252.53 6.73C252.04 6.73 251.61 6.83 251.23 7.01C250.85 7.20 250.54 7.46 250.28 7.78C250.01 8.11 249.83 8.50 249.69 8.93C249.55 9.37 249.49 9.84 249.49 10.35C249.49 11.54 249.73 12.43 250.21 13.02C250.68 13.61 251.36 13.90 252.21 13.90C252.73 13.90 253.19 13.79 253.61 13.54C254.03 13.29 254.38 12.95 254.69 12.53L254.76 13.64C254.77 13.76 254.84 13.82 254.95 13.82L255.32 13.82L256.26 13.82L256.26 13.61ZM254.66 12.01C254.37 12.43 254.03 12.77 253.65 13.01C253.27 13.24 252.87 13.37 252.41 13.37C251.69 13.37 251.13 13.13 250.75 12.64C250.38 12.15 250.18 11.38 250.18 10.35C250.18 9.88 250.22 9.48 250.33 9.10C250.45 8.72 250.60 8.39 250.81 8.12C251.02 7.85 251.27 7.63 251.58 7.48C251.89 7.32 252.25 7.25 252.66 7.25C253.06 7.25 253.44 7.34 253.76 7.50C254.09 7.67 254.39 7.95 254.66 8.34Z"></path></g></svg>